<?xml version="1.0" encoding="iso-8859-1"?>
<!-- Generator: Adobe Illustrator 19.0.0, SVG Export Plug-In . SVG Version: 6.00 Build 0)  -->
<svg version="1.1" id="Capa_1" xmlns="http://www.w3.org/2000/svg" xmlns:xlink="http://www.w3.org/1999/xlink" x="0px" y="0px"
	 viewBox="0 0 512 512" style="enable-background:new 0 0 512 512;" xml:space="preserve">
<g>
	<g>
		<path d="M243.163,28.189c-94.847,0-172.009,77.162-172.009,172.009s77.162,172.009,172.009,172.009
			s172.009-77.162,172.009-172.009S338.01,28.189,243.163,28.189z M243.163,337.69c-75.81,0-137.492-61.676-137.492-137.492
			c0-75.811,61.682-137.492,137.492-137.492c75.816,0,137.492,61.682,137.492,137.492S318.974,337.69,243.163,337.69z"/>
	</g>
</g>
<g>
	<g>
		<path d="M401.492,42.45c-6.742-6.742-17.661-6.742-24.403,0c-6.742,6.737-6.742,17.667,0,24.403
			c35.69,35.696,55.348,83.048,55.348,133.344s-19.657,97.648-55.348,133.344c-35.702,35.702-83.117,55.348-133.551,55.348
			c-0.115,0-0.236,0-0.351,0c-50.28-0.086-97.418-19.726-132.74-55.302c-6.719-6.765-17.65-6.806-24.409-0.092
			c-6.765,6.714-6.8,17.638-0.086,24.403c41.829,42.134,97.648,65.398,157.172,65.507c0.138,0,0.276,0,0.414,0
			c59.651,0,115.735-23.236,157.955-65.461C488.474,270.963,488.474,129.432,401.492,42.45z"/>
	</g>
</g>
<g>
	<g>
		<path d="M146.021,297.248c-6.765-6.708-17.696-6.673-24.409,0.104l-71.335,71.91c-6.714,6.765-6.667,17.69,0.098,24.403
			c3.365,3.337,7.761,5.005,12.156,5.005c4.435,0,8.877-1.703,12.253-5.109l71.335-71.91
			C152.832,314.886,152.786,303.961,146.021,297.248z"/>
	</g>
</g>
<g>
	<g>
		<path d="M438.31,5.057c-6.742-6.742-17.661-6.742-24.403,0l-73.061,73.061c-6.742,6.737-6.742,17.667,0,24.403
			c3.371,3.371,7.784,5.057,12.202,5.057c4.412,0,8.831-1.686,12.202-5.057L438.31,29.46
			C445.052,22.724,445.052,11.793,438.31,5.057z"/>
	</g>
</g>
<g>
	<g>
		<rect x="243.169" y="406.148" width="34.517" height="88.593"/>
	</g>
</g>
<g>
	<g>
		<path d="M336.359,477.483H185.635c-9.532,0-17.258,7.726-17.258,17.258S176.103,512,185.635,512h150.724
			c9.532,0,17.258-7.726,17.258-17.258S345.891,477.483,336.359,477.483z"/>
	</g>
</g>
<g>
</g>
<g>
</g>
<g>
</g>
<g>
</g>
<g>
</g>
<g>
</g>
<g>
</g>
<g>
</g>
<g>
</g>
<g>
</g>
<g>
</g>
<g>
</g>
<g>
</g>
<g>
</g>
<g>
</g>
</svg>
